<svg width="93" height="32" viewBox="0 0 93 32" fill="none" xmlns="http://www.w3.org/2000/svg">
<path d="M38.4328 23.4953C36.6381 23.4953 35.0185 23.1093 33.5739 22.3371C32.1513 21.565 31.0241 20.4619 30.1924 19.0279C29.3826 17.5939 28.9777 15.9173 28.9777 13.9979C28.9777 12.1007 29.3935 10.435 30.2252 9.00103C31.0569 7.54498 32.1951 6.43089 33.6396 5.65874C35.0841 4.88659 36.7038 4.50052 38.4985 4.50052C40.2932 4.50052 41.9128 4.88659 43.3574 5.65874C44.8019 6.43089 45.94 7.54498 46.7717 9.00103C47.6035 10.435 48.0193 12.1007 48.0193 13.9979C48.0193 15.8952 47.5925 17.5719 46.7389 19.0279C45.9072 20.4619 44.7581 21.565 43.2917 22.3371C41.8472 23.1093 40.2276 23.4953 38.4328 23.4953ZM38.4328 18.5977C39.5053 18.5977 40.4136 18.2006 41.1577 17.4064C41.9238 16.6122 42.3068 15.476 42.3068 13.9979C42.3068 12.5198 41.9347 11.3837 41.1906 10.5895C40.4683 9.79524 39.5709 9.39814 38.4985 9.39814C37.4041 9.39814 36.4958 9.79524 35.7736 10.5895C35.0513 11.3616 34.6902 12.4978 34.6902 13.9979C34.6902 15.476 35.0404 16.6122 35.7407 17.4064C36.463 18.2006 37.3604 18.5977 38.4328 18.5977Z" fill="white"/>
<path d="M49.6516 0H55.3969L51.7199 8.86867H47.9444L49.6516 0Z" fill="white"/>
<path d="M74.7817 4.76525L63.2911 32H57.2503L61.4526 22.6019L54.0001 4.76525H60.2707L64.5058 16.3144L68.7081 4.76525H74.7817Z" fill="white"/>
<path d="M73.0691 13.9648C73.0691 12.0676 73.4193 10.4019 74.1197 8.96794C74.842 7.53395 75.816 6.43089 77.0416 5.65874C78.2673 4.88659 79.6352 4.50052 81.1454 4.50052C82.4368 4.50052 83.5639 4.76525 84.527 5.29472C85.5119 5.8242 86.267 6.51913 86.7923 7.37952V4.76525H92.4062V23.2306H86.7923V20.6163C86.2451 21.4767 85.479 22.1717 84.4941 22.7011C83.5311 23.2306 82.4039 23.4953 81.1126 23.4953C79.6243 23.4953 78.2673 23.1093 77.0416 22.3371C75.816 21.5429 74.842 20.4288 74.1197 18.9948C73.4193 17.5388 73.0691 15.8621 73.0691 13.9648ZM86.7923 13.9979C86.7923 12.586 86.3983 11.4719 85.6104 10.6556C84.8443 9.83937 83.9032 9.43123 82.7869 9.43123C81.6707 9.43123 80.7186 9.83937 79.9307 10.6556C79.1647 11.4498 78.7816 12.5529 78.7816 13.9648C78.7816 15.3768 79.1647 16.5019 79.9307 17.3402C80.7186 18.1565 81.6707 18.5646 82.7869 18.5646C83.9032 18.5646 84.8443 18.1565 85.6104 17.3402C86.3983 16.524 86.7923 15.4099 86.7923 13.9979Z" fill="white"/>
<path d="M18.9491 6.54477H9.14627L10.7647 1.46444H21.3999C25.7464 1.97713 28.4283 4.96008 27.596 10.6463C26.9302 15.1953 23.866 17.2958 22.4171 17.7774L25.9314 25.6543H19.7352L17.4232 19.8748L20.0127 18.7562H12.9379L14.5563 16.4258C15.5181 15.3072 15.3578 14.0953 15.1575 13.6293C16.6526 13.8934 19.9793 13.9089 20.8912 11.9514C22.8888 7.66337 20.4288 6.5603 18.9491 6.54477Z" fill="white"/>
<path d="M8.92833 12.1109L13.6315 1.46444H6.19233C5.31572 1.46444 4.54779 2.05636 4.3181 2.90908L0.448929 17.2735C0.241368 18.044 0.817007 18.8028 1.60916 18.8028H4.51208C5.29307 18.8028 5.86675 19.5416 5.6791 20.3058L4.04609 26.9557C3.97429 27.2481 4.34877 27.4325 4.53349 27.1958L13.7957 15.3241C14.2728 14.7125 13.8406 13.8157 13.0687 13.8157H10.0266C9.15623 13.8157 8.57428 12.9124 8.92833 12.1109Z" fill="url(#paint0_linear_1_24)"/>
<defs>
<linearGradient id="paint0_linear_1_24" x1="8.54514" y1="22.5315" x2="8.54514" y2="5.6126" gradientUnits="userSpaceOnUse">
<stop stop-color="#EE7214"/>
<stop offset="1" stop-color="#F7A240"/>
</linearGradient>
</defs>
</svg>
